<svg t="1758017972318" class="icon" viewBox="0 0 1182 1024" version="1.1" xmlns="http://www.w3.org/2000/svg" p-id="17418" width="200" height="200"><path d="M147.844496 256.059953L0 512.059953h295.688993z" fill="#CCCCCC" p-id="17419"></path><path d="M0 512.059953L147.844496 768l147.844497-255.940047z" fill="#D5D5D5" p-id="17420"></path><path d="M295.688993 512.059953L147.844496 768h295.748947z" fill="#E1E1E1" p-id="17421"></path><path d="M295.688993 512.059953L443.593443 768l147.844496-255.940047z" fill="#E8E8E8" p-id="17422"></path><path d="M443.593443 256.059953l-147.90445 256h295.748946z" fill="#F5F5F5" p-id="17423"></path><path d="M443.593443 256.059953l147.844496 256 147.844497-256z" fill="#FCFCFC" p-id="17424"></path><path d="M739.282436 256.059953l-147.844497 256h295.688993z" fill="#F5F5F5" p-id="17425"></path><path d="M1035.031382 256.059953l-147.90445 256H1182.875878z" fill="#CCCCCC" p-id="17426"></path><path d="M591.437939 512.059953l147.844497 255.940047 147.844496-255.940047z" fill="#E8E8E8" p-id="17427"></path><path d="M887.126932 512.059953L739.282436 768h295.748946z" fill="#E1E1E1" p-id="17428"></path><path d="M887.126932 512.059953l147.90445 255.940047L1182.875878 512.059953z" fill="#D5D5D5" p-id="17429"></path><path d="M591.437939 0L443.593443 256.059953h295.688993z" fill="#DFC623" p-id="17430"></path><path d="M295.688993 0.059953l147.90445 256L591.437939 0.059953z" fill="#FCB915" p-id="17431"></path><path d="M295.688993 0.059953l-147.844497 256h295.748947z" fill="#F29520" p-id="17432"></path><path d="M147.844496 256.059953l147.844497 256 147.90445-256z" fill="#E86726" p-id="17433"></path><path d="M739.282436 256.059953l147.844496 256 147.90445-256z" fill="#4BA273" p-id="17434"></path><path d="M887.126932 0l-147.844496 256.059953h295.688993z" fill="#86BA40" p-id="17435"></path><path d="M591.437939 0.059953l147.844497 256L887.126932 0.059953z" fill="#A5C63B" p-id="17436"></path><path d="M739.282436 768l-147.844497 256h295.688993z" fill="#02AFF3" p-id="17437"></path><path d="M147.844496 768l147.844497 256 147.90445-256z" fill="#233D5E" p-id="17438"></path><path d="M443.593443 768l-147.90445 256h295.748946z" fill="#106294" p-id="17439"></path><path d="M591.437939 512.059953L443.593443 768h295.688993z" fill="#02AFF3" p-id="17440"></path><path d="M443.593443 768l147.844496 256 147.844497-256z" fill="#158DBF" p-id="17441"></path><path d="M739.282436 768l147.904449 256 147.844497-256z" fill="#0C72AF" p-id="17442"></path></svg>
